<svg width="159" height="186" viewBox="0 0 159 186" fill="none" xmlns="http://www.w3.org/2000/svg">
<g id="Clock">
<path id="Vector" d="M79.4741 185.483C123.366 185.483 158.948 149.758 158.948 105.689C158.948 61.6191 123.366 25.8937 79.4741 25.8937C35.5818 25.8937 0 61.6191 0 105.689C0 149.758 35.5818 185.483 79.4741 185.483Z" fill="#3F3D56"/>
<path id="Vector_2" d="M79.4741 178.878C119.733 178.878 152.369 146.11 152.369 105.689C152.369 65.2673 119.733 32.4993 79.4741 32.4993C39.2153 32.4993 6.57898 65.2673 6.57898 105.689C6.57898 146.11 39.2153 178.878 79.4741 178.878Z" fill="white"/>
<path id="Vector_3" d="M81.3163 36.1984H77.1057V44.125H81.3163V36.1984Z" fill="#3F3D56"/>
<path id="Vector_4" d="M81.3163 167.781H77.1057V175.707H81.3163V167.781Z" fill="#3F3D56"/>
<path id="Vector_5" d="M17.6317 108.067V103.839H9.73692V108.067H17.6317Z" fill="#3F3D56"/>
<path id="Vector_6" d="M148.685 108.067V103.839H140.79V108.067H148.685Z" fill="#3F3D56"/>
<g id="needle">
<path id="Vector_7" d="M79.2109 115.729C84.5885 115.729 88.9478 111.352 88.9478 105.953C88.9478 100.554 84.5885 96.1766 79.2109 96.1766C73.8334 96.1766 69.474 100.554 69.474 105.953C69.474 111.352 73.8334 115.729 79.2109 115.729Z" fill="#3F3D56"/>
<path id="Vector_8" d="M76.404 110.197L80.0024 101.936L125.09 127.008L76.404 110.197Z" fill="#3F3D56"/>
</g>
<path id="Vector_9" d="M89.7374 6.60553H69.2109V30.3855H89.7374V6.60553Z" fill="#3F3D56"/>
<path id="Vector_10" d="M79.4741 13.2111C92.5546 13.2111 103.158 10.2537 103.158 6.60554C103.158 2.9574 92.5546 0 79.4741 0C66.3936 0 55.7898 2.9574 55.7898 6.60554C55.7898 10.2537 66.3936 13.2111 79.4741 13.2111Z" fill="#3F3D56"/>
</g>
</svg>
